{"title":"Die.2010.DVDRip.XviD.AC3.HQ.Hive-CM8","uid":6105554,"size":1717176555,"categoryP":"video","categoryS":"movies","magnet":"?xt=urn:btih:d73b576f3b91d18fe3d1b238f80bc2b9c7bf12c9&amp;dn=Die.2010.DVDRip.XviD.AC3.HQ.Hive-CM8&amp;tr=udp%3A%2F%2Ftracker.openbittorrent.com%3A80&amp;tr=udp%3A%2F%2Fopen.demonii.com%3A1337&amp;tr=udp%3A%2F%2Ftracker.coppersurfer.tk%3A6969&amp;tr=udp%3A%2F%2Fexodus.desync.com%3A6969","seeders":0,"leechers":1,"uploader":".BONE.","files":4,"time":1295142286,"description":"Die 2010 DVDRip XviD AC3 HQ Hive-CM8\n\nThx Hive\n\nCM8 Doing It Right The First Time\n\n\nSource R2 Pal Pre-Rental\nthx NLC\n\nVideo: 720x304 @bitrate 2150 2pass\nAudio: English AC3 5.1 @448\nSample: yes included\n\nEncode: Source DVD was not the greatest in quality.\nadded sharpness,chroma,denoise and corrected rgb colours.\n\n &lt;a href=&quot;\nhttp://www.imdb.com/title/tt1465478/&quot; rel=&quot;nofollow&quot; target=&quot;_NEW&quot;&gt;\nhttp://www.imdb.com/title/tt1465478/&lt;/a&gt;\n\n\nGeneral\nComplete name : Die.2010.DVDRip.XviD.AC3.HQ.Hive-CM8.avi\nFormat : AVI\nFormat/Info : Audio Video Interleave\nFile size : 1.59 GiB\nDuration : 1h 27mn\nOverall bit rate : 2 600 Kbps\nWriting application : Nandub v1.0rc2\nWriting library : Nandub build 1853/release\n\nVideo\nID : 0\nFormat : MPEG-4 Visual\nFormat profile : Advanced Simple@L5\nFormat settings, BVOP : Yes\nFormat settings, QPel : Yes\nFormat settings, GMC : No warppoints\nFormat settings, Matrix : Default (H.263)\nMuxing mode : Packed bitstream\nCodec ID : XVID\nCodec ID/Hint : XviD\nDuration : 1h 27mn\nBit rate : 2 142 Kbps\nWidth : 720 pixels\nHeight : 304 pixels\nDisplay aspect ratio : 2.35:1\nFrame rate : 25.000 fps\nColor space : YUV\nChroma subsampling : 4:2:0\nBit depth : 8 bits\nScan type : Progressive\nBits/(Pixel*Frame) : 0.391\nStream size : 1.31 GiB (82%)\nWriting library : XviD 1.2.1 (UTC 2008-12-04)\n\nAudio\nID : 1\nFormat : AC-3\nFormat/Info : Audio Coding 3\nMode extension : CM (complete main)\nCodec ID : 2000\nDuration : 1h 27mn\nBit rate mode : Constant\nBit rate : 448 Kbps\nChannel(s) : 6 channels\nChannel positions : Front: L C R, Side: L R, LFE\nSampling rate : 48.0 KHz\nBit depth : 16 bits\nStream size : 281 MiB (17%)\nAlignment : Split accross interleaves\nInterleave, duration : 40 ms (1.00 video frame)\nInterleave, preload duration : 500 ms\n\n\n\n\n\n\nEmily Hampshire ... Lisa\nElias Koteas ... Mark Murdock\nJohn Pyper-Ferguson ... Jacob\nCaterina Murino ... Sofia Valenti\nPatricia McKenzie ... Diane Robinson\nKarl Pruner ... Zach Emmett\nKatie Boland ... Melody Chambers\nFabio Fulco ... Robert Moretti\nSimone-Elise Girard ... Claire\nPeter Miller ... Tom (voice)\n\n\n\n\nSix people, each of them is on the road to self-destruction. They wake up in cells in a surreal facility,\nwithout knowing how they got there or why. Are they in denial? Are they crazy? What happened?\nAs they try to figure things out, a mysterious man forces the six abductees to participate in\na disturbing experiment called the Trials. During the experiment, the unwilling participants will\ncome to face disturbing truths about themselves and decide each others and fate in a game of dice.\nAs the storyline unfolds, we discover that something greater connects them all.","torrent":{"xt":"urn:btih:d73b576f3b91d18fe3d1b238f80bc2b9c7bf12c9","amp;dn":"Die.2010.DVDRip.XviD.AC3.HQ.Hive-CM8","amp;tr":["udp%3A%2F%2Ftracker.openbittorrent.com%3A80","udp%3A%2F%2Fopen.demonii.com%3A1337","udp%3A%2F%2Ftracker.coppersurfer.tk%3A6969","udp%3A%2F%2Fexodus.desync.com%3A6969"],"infoHash":"d73b576f3b91d18fe3d1b238f80bc2b9c7bf12c9","infoHashBuffer":{"type":"Buffer","data":[215,59,87,111,59,145,209,143,227,209,178,56,248,11,194,185,199,191,18,201]},"announce":[],"urlList":[]}}